<?xml version="1.0" encoding="UTF-8"?>
<svg width="90px" height="86px" viewBox="0 0 90 86" version="1.1" xmlns="http://www.w3.org/2000/svg" xmlns:xlink="http://www.w3.org/1999/xlink">
    <!-- Generator: Sketch 43.1 (39012) - http://www.bohemiancoding.com/sketch -->
    <title>noun_1213474_cc</title>
    <desc>Created with Sketch.</desc>
    <defs></defs>
    <g id="Page-1" stroke="none" stroke-width="1" fill="none" fill-rule="evenodd">
        <g id="noun_1213474_cc" transform="translate(0.000000, -1.000000)" fill-rule="nonzero" fill="#000000">
            <g id="Group" transform="translate(0.000000, 0.637820)">
                <path d="M45.53125,0.36218 C42.093415,0.44138 39.199744,1.26961 37.03125,2.95593 C34.862756,4.64225 33.611798,7.0995 33.1875,9.64343 C32.338903,14.73128 34.112719,20.3305 36.6875,25.83093 C39.262281,31.33136 42.783885,36.68214 46.28125,40.79968 C48.029932,42.85848 49.748396,44.60428 51.4375,45.92468 C53.126604,47.24508 54.694352,48.36218 57,48.36218 C59.305648,48.36218 60.873396,47.24508 62.5625,45.92468 C64.251604,44.60428 65.970068,42.85848 67.71875,40.79968 C71.216115,36.68214 74.737718,31.33136 77.3125,25.83093 C79.887282,20.3305 81.661097,14.73128 80.8125,9.64343 C80.388201,7.0995 79.137245,4.64225 76.96875,2.95593 C74.800255,1.26961 71.906586,0.44135 68.46875,0.36218 C68.4479172,0.361963002 68.4270828,0.361963002 68.40625,0.36218 C63.436899,0.38858 60.020043,3.51342 57,6.36218 C53.979951,3.51342 50.563078,0.3886 45.59375,0.36218 C45.5729172,0.361963002 45.5520828,0.361963002 45.53125,0.36218 L45.53125,0.36218 Z M45.5625,6.36218 C45.5715,6.36223 45.5847,6.36206 45.59375,6.36218 C48.080692,6.39618 51.355662,9.28357 55,12.58093 C56.1388548,13.5993694 57.8611452,13.5993694 59,12.58093 C62.644366,9.28356 65.919316,6.3962 68.40625,6.36218 C68.41535,6.36206 68.42847,6.36223 68.4375,6.36218 C70.930034,6.43568 72.412093,6.99879 73.28125,7.67468 C74.163548,8.36079 74.638246,9.22395 74.875,10.64343 C75.348507,13.48239 74.214244,18.36918 71.90625,23.29968 C69.598256,28.23018 66.274431,33.25356 63.15625,36.92468 C61.597159,38.76024 60.057091,40.25742 58.84375,41.20593 C57.964078,41.89352 57.214964,42.187607 57,42.29968 C56.785036,42.187607 56.035922,41.89352 55.15625,41.20593 C53.942909,40.25742 52.40284,38.76024 50.84375,36.92468 C47.725569,33.25356 44.401744,28.23018 42.09375,23.29968 C39.785756,18.36918 38.651493,13.48239 39.125,10.64343 C39.361754,9.22395 39.836452,8.36079 40.71875,7.67468 C41.587906,6.99879 43.069967,6.4357 45.5625,6.36218 Z M2.6875,42.36218 C1.1538208,42.5229295 -0.00824711061,43.8201216 6.77626358e-21,45.36218 L6.77626358e-21,81.36218 C0.000165653716,83.0189656 1.34321437,84.3620143 3,84.36218 L17,84.36218 C18.6567856,84.3620143 19.9998343,83.0189656 20,81.36218 L20,77.20593 C22.33416,78.973778 24.596977,80.695974 27.28125,82.20593 C31.669188,84.67413 37.100008,86.36208 45,86.36218 C53.633376,86.36218 63.286077,81.80773 71.09375,77.45593 C78.787981,73.16733 84.488407,68.95473 84.65625,68.83093 C84.69709,68.80393 84.74077,68.79543 84.78125,68.76843 L84.78125,68.73718 C86.284193,67.73358 87.55958,66.86003 88.5625,65.45593 C89.595939,64.00903 90,62.19558 90,60.36218 C90,58.61218 89.193673,56.93323 88.125,55.89343 C87.056327,54.85373 85.851818,54.32618 84.75,53.98718 C82.546364,53.30918 80.5,53.36218 80,53.36218 C77.090775,53.36218 74.549904,54.56793 72.34375,55.64343 C71.505418,56.05213 71.474187,56.10613 70.84375,56.45593 C69.455971,54.04963 66.946955,52.36218 64,52.36218 L46.0625,52.36218 C40.163747,47.371916 30.898512,46.505958 20,46.39343 L20,45.36218 C19.9998343,43.7053944 18.6567856,42.3623457 17,42.36218 L3,42.36218 C2.89590406,42.3567515 2.79159594,42.3567515 2.6875,42.36218 L2.6875,42.36218 Z M6,48.36218 L14,48.36218 L14,49.17468 C13.9980466,49.2371647 13.9980466,49.2996953 14,49.36218 L14,71.36218 L14,78.36218 L6,78.36218 L6,48.36218 Z M20,52.45593 C31.006027,52.68493 39.503492,54.08433 42.875,57.45593 C43.4339789,58.0295375 44.1990988,58.3558386 45,58.36218 L64,58.36218 C65.159892,58.36218 66,59.20228 66,60.36218 C66,61.52218 65.159892,62.36218 64,62.36218 L35,62.36218 C33.9180923,62.3468791 32.9117559,62.9153059 32.3663368,63.8497985 C31.8209178,64.7842912 31.8209178,65.9400688 32.3663368,66.8745615 C32.9117559,67.8090541 33.9180923,68.3774809 35,68.36218 L64,68.36218 C67.461557,68.36218 70.368279,66.06613 71.46875,62.95593 C71.5108963,62.93607 71.5525743,62.9152311 71.59375,62.89343 C71.59375,62.89343 73.072439,61.97418 74.96875,61.04968 C76.865061,60.12518 79.319125,59.36218 80,59.36218 C80.5,59.36218 81.953631,59.38413 83,59.70593 C83.523185,59.86683 83.881172,60.08948 83.96875,60.17468 C84.05633,60.25968 84,60.11268 84,60.36218 C84,61.52888 83.90406,61.68398 83.6875,61.98718 C83.470939,62.29038 82.779746,62.90488 81.34375,63.86218 C81.3016037,63.88204 81.2599257,63.9028789 81.21875,63.92468 C81.21875,63.92468 75.598552,68.08898 68.15625,72.23718 C60.713948,76.38538 51.366724,80.36218 45,80.36218 C37.899992,80.36218 33.830812,79.01898 30.21875,76.98718 C26.998667,75.17588 23.93465,72.58853 20,69.83093 L20,52.45593 Z" id="Shape"></path>
            </g>
        </g>
    </g>
</svg>