<?xml version="1.0" encoding="UTF-8"?>
<svg width="765px" height="157px" viewBox="0 0 765 157" version="1.1" xmlns="http://www.w3.org/2000/svg" xmlns:xlink="http://www.w3.org/1999/xlink">
    <!-- Generator: Sketch 43.1 (39012) - http://www.bohemiancoding.com/sketch -->
    <title>Artboard 3</title>
    <desc>Created with Sketch.</desc>
    <defs></defs>
    <g id="Page-1" stroke="none" stroke-width="1" fill="none" fill-rule="evenodd">
        <g id="Artboard-3">
            <rect id="Rectangle-8" fill="#674172" x="8" y="9" width="744.903201" height="141" rx="8"></rect>
            <text id="CRYPT" font-family="AvenirNext-Heavy, Avenir Next" font-size="90" font-weight="600" fill="#FFFFFF">
                <tspan x="34.3527076" y="111">CRYPT</tspan>
            </text>
            <text id="LOTT" font-family="AvenirNext-Heavy, Avenir Next" font-size="90" font-weight="600" fill="#FFFFFF">
                <tspan x="417" y="108">LOTT</tspan>
            </text>
            <g id="noun_1284780_cc" transform="translate(346.000000, 44.000000)" fill-rule="nonzero" fill="#FFFFFF">
                <g id="Group">
                    <path d="M35.2759584,0 C15.8241122,0 0,15.6663353 0,34.9217225 C0,54.1771097 15.8241122,69.843445 35.2759584,69.843445 C54.7278046,69.843445 70.5519167,54.1771097 70.5519167,34.9217225 C70.5519167,15.6663353 54.7278046,0 35.2759584,0 Z M68.2476001,36.0482297 C67.9665304,44.2063946 64.6528662,51.6120528 59.385369,57.1961489 L56.1968776,54.0396758 C60.9261318,48.9748995 63.7243119,42.2406396 63.7243119,34.9217225 C63.7243119,27.5611246 60.854442,20.8550274 56.1684292,15.8319319 L59.385369,12.6472961 C64.6528662,18.2313922 67.9665304,25.6370503 68.2476001,33.7952153 L66.0001802,33.7952153 L66.0001802,36.0482297 L68.2476001,36.0482297 Z M54.5593903,14.2390507 C49.7459289,9.83891368 43.4008081,7.06094699 36.4138925,6.78720574 L36.4138925,2.28117703 C44.6548116,2.55942431 52.1355906,5.83981321 57.7751922,11.0544149 L54.5593903,14.2390507 Z M34.1380242,6.78720574 C27.1511086,7.06094699 20.8059878,9.83778718 15.9925264,14.2390507 L12.7755866,11.0544149 C18.4163261,5.83981321 25.8971052,2.55942431 34.1380242,2.28117703 L34.1380242,6.78720574 Z M14.3834875,15.8319319 C9.93871679,20.5970572 7.1325712,26.8784612 6.8560532,33.7952153 L2.30431664,33.7952153 C2.58538637,25.6370503 5.89905059,18.2313922 11.1665477,12.6472961 L14.3834875,15.8319319 Z M6.8560532,36.0482297 C7.1325712,42.9649837 9.93757885,49.2463878 14.3834875,54.0115131 L11.1665477,57.1961489 C5.89905059,51.6120528 2.58538637,44.2063946 2.30431664,36.0482297 L6.8560532,36.0482297 Z M15.9925264,55.6043943 C20.8059878,60.0056578 27.1511086,62.782498 34.1380242,63.0562392 L34.1380242,67.5622679 C25.8971052,67.2840207 18.4163261,64.0036318 12.7767245,58.78903 L15.9925264,55.6043943 Z M36.4138925,63.0551127 C38.0229314,62.9920283 39.6228668,62.8027751 41.1852504,62.476088 L40.7141456,60.2715135 C38.9389684,60.6432609 37.1091703,60.8313876 35.2759584,60.8313876 C20.8435397,60.8313876 9.10347313,49.2080865 9.10347313,34.9217225 C9.10347313,20.6353585 20.8435397,9.01205742 35.2759584,9.01205742 C49.7083771,9.01205742 61.4484436,20.6353585 61.4484436,34.9217225 C61.4484436,46.4132222 53.9938371,56.3771782 42.8978413,59.7161455 L43.5601189,61.8711537 C47.7852684,60.6004536 51.5085889,58.4308008 54.5844249,55.6303039 L57.7751922,58.78903 C52.1355906,64.0036318 44.6548116,67.2840207 36.4138925,67.5622679 L36.4138925,63.0551127 Z" id="Shape"></path>
                    <path d="M56.8967071,34.9217225 C56.8967071,23.1193068 47.1980944,13.5180861 35.2759584,13.5180861 C23.3538224,13.5180861 13.6552097,23.1193068 13.6552097,34.9217225 C13.6552097,46.7241382 23.3538224,56.3253589 35.2759584,56.3253589 C47.1980944,56.3253589 56.8967071,46.7241382 56.8967071,34.9217225 Z M35.2759584,54.0723445 C24.6089637,54.0723445 15.931078,45.4816008 15.931078,34.9217225 C15.931078,24.3618442 24.6089637,15.7711005 35.2759584,15.7711005 C45.942953,15.7711005 54.6208388,24.3618442 54.6208388,34.9217225 C54.6208388,45.4816008 45.942953,54.0723445 35.2759584,54.0723445 Z" id="Shape"></path>
                    <path d="M50.0691022,34.9217225 C50.0691022,40.5227162 46.9193005,45.5514442 41.848666,48.0444046 L42.8625653,50.0619789 C48.7115468,47.1848796 52.3449705,41.3833677 52.3449705,34.9217225 L50.0691022,34.9217225 Z" id="Shape"></path>
                    <path d="M37.3891021,49.4187433 L37.7134133,51.6481011 C38.6055537,51.5219322 39.4920044,51.3225405 40.3500067,51.0600643 L39.6740738,48.9084356 C38.9332787,49.1371166 38.1640352,49.3083456 37.3891021,49.4187433 Z" id="Shape"></path>
                    <path d="M48.9311681,32.2823162 C48.9311681,28.1469083 45.5332967,24.7831579 41.3559405,24.7831579 C39.3338315,24.7831579 37.4323436,25.5627009 35.9996845,26.9787204 L35.2759584,27.6951789 L34.5522323,26.9787204 C33.1195732,25.5627009 31.2192232,24.7831579 29.1959763,24.7831579 C25.01862,24.7831579 21.6207487,28.1469083 21.6207487,32.2823162 C21.6207487,34.2863724 22.4081991,36.1698924 23.8397203,37.5847855 L35.2759584,48.9061826 L46.7121965,37.5847855 C48.1437176,36.1687659 48.9311681,34.2863724 48.9311681,32.2823162 Z M45.1031576,35.9919043 L35.2759584,45.7204203 L25.4487591,35.9907778 C24.4473771,35.000578 23.896617,33.6836911 23.896617,32.2823162 C23.896617,29.3894457 26.2737614,27.0361722 29.1959763,27.0361722 C30.6104284,27.0361722 31.9418113,27.5814017 32.9431934,28.572728 L35.2759584,30.8831943 L37.6087234,28.572728 C38.6112433,27.5814017 39.9414884,27.0361722 41.3559405,27.0361722 C44.2781554,27.0361722 46.6552998,29.3894457 46.6552998,32.2823162 C46.6552998,33.6836911 46.1045397,35.000578 45.1031576,35.9919043 Z" id="Shape"></path>
                </g>
            </g>
            <g id="noun_1284780_cc-copy-2" transform="translate(649.000000, 44.000000)" fill-rule="nonzero" fill="#FFFFFF">
                <g id="Group">
                    <path d="M35.2759584,0 C15.8241122,0 0,15.6663353 0,34.9217225 C0,54.1771097 15.8241122,69.843445 35.2759584,69.843445 C54.7278046,69.843445 70.5519167,54.1771097 70.5519167,34.9217225 C70.5519167,15.6663353 54.7278046,0 35.2759584,0 Z M68.2476001,36.0482297 C67.9665304,44.2063946 64.6528662,51.6120528 59.385369,57.1961489 L56.1968776,54.0396758 C60.9261318,48.9748995 63.7243119,42.2406396 63.7243119,34.9217225 C63.7243119,27.5611246 60.854442,20.8550274 56.1684292,15.8319319 L59.385369,12.6472961 C64.6528662,18.2313922 67.9665304,25.6370503 68.2476001,33.7952153 L66.0001802,33.7952153 L66.0001802,36.0482297 L68.2476001,36.0482297 Z M54.5593903,14.2390507 C49.7459289,9.83891368 43.4008081,7.06094699 36.4138925,6.78720574 L36.4138925,2.28117703 C44.6548116,2.55942431 52.1355906,5.83981321 57.7751922,11.0544149 L54.5593903,14.2390507 Z M34.1380242,6.78720574 C27.1511086,7.06094699 20.8059878,9.83778718 15.9925264,14.2390507 L12.7755866,11.0544149 C18.4163261,5.83981321 25.8971052,2.55942431 34.1380242,2.28117703 L34.1380242,6.78720574 Z M14.3834875,15.8319319 C9.93871679,20.5970572 7.1325712,26.8784612 6.8560532,33.7952153 L2.30431664,33.7952153 C2.58538637,25.6370503 5.89905059,18.2313922 11.1665477,12.6472961 L14.3834875,15.8319319 Z M6.8560532,36.0482297 C7.1325712,42.9649837 9.93757885,49.2463878 14.3834875,54.0115131 L11.1665477,57.1961489 C5.89905059,51.6120528 2.58538637,44.2063946 2.30431664,36.0482297 L6.8560532,36.0482297 Z M15.9925264,55.6043943 C20.8059878,60.0056578 27.1511086,62.782498 34.1380242,63.0562392 L34.1380242,67.5622679 C25.8971052,67.2840207 18.4163261,64.0036318 12.7767245,58.78903 L15.9925264,55.6043943 Z M36.4138925,63.0551127 C38.0229314,62.9920283 39.6228668,62.8027751 41.1852504,62.476088 L40.7141456,60.2715135 C38.9389684,60.6432609 37.1091703,60.8313876 35.2759584,60.8313876 C20.8435397,60.8313876 9.10347313,49.2080865 9.10347313,34.9217225 C9.10347313,20.6353585 20.8435397,9.01205742 35.2759584,9.01205742 C49.7083771,9.01205742 61.4484436,20.6353585 61.4484436,34.9217225 C61.4484436,46.4132222 53.9938371,56.3771782 42.8978413,59.7161455 L43.5601189,61.8711537 C47.7852684,60.6004536 51.5085889,58.4308008 54.5844249,55.6303039 L57.7751922,58.78903 C52.1355906,64.0036318 44.6548116,67.2840207 36.4138925,67.5622679 L36.4138925,63.0551127 Z" id="Shape"></path>
                    <path d="M56.8967071,34.9217225 C56.8967071,23.1193068 47.1980944,13.5180861 35.2759584,13.5180861 C23.3538224,13.5180861 13.6552097,23.1193068 13.6552097,34.9217225 C13.6552097,46.7241382 23.3538224,56.3253589 35.2759584,56.3253589 C47.1980944,56.3253589 56.8967071,46.7241382 56.8967071,34.9217225 Z M35.2759584,54.0723445 C24.6089637,54.0723445 15.931078,45.4816008 15.931078,34.9217225 C15.931078,24.3618442 24.6089637,15.7711005 35.2759584,15.7711005 C45.942953,15.7711005 54.6208388,24.3618442 54.6208388,34.9217225 C54.6208388,45.4816008 45.942953,54.0723445 35.2759584,54.0723445 Z" id="Shape"></path>
                </g>
            </g>
            <g id="noun_1529277_cc" transform="translate(674.000000, 63.000000)" fill-rule="nonzero" fill="#FFFFFF">
                <g id="Group">
                    <path d="M0.420769231,16.3941647 L9.77923077,21.7916235 C9.83961538,21.8266353 9.90692308,21.8439529 9.97461538,21.8439529 C10.0423077,21.8439529 10.1096154,21.8266353 10.1696154,21.7916235 L19.5907692,16.3632941 C19.6792308,16.3124706 19.7430769,16.2292706 19.7684615,16.1321412 C19.7938462,16.0350118 19.7784615,15.9318588 19.7261538,15.8456471 L10.3476923,0.509364706 C10.2780769,0.395670588 10.1526923,0.3264 10.0176923,0.3264 C9.88269231,0.3264 9.75692308,0.396047059 9.68769231,0.509364706 L0.286153846,15.8765176 C0.233461538,15.9627294 0.218076923,16.0655059 0.243461538,16.1630118 C0.268461538,16.2597647 0.332307692,16.3433412 0.420769231,16.3941647 Z M9.63307692,20.8335059 L1.45653846,16.1174588 L9.63307692,12.4265412 L9.63307692,20.8335059 Z M10.4023077,12.4288 L18.5561538,16.0862118 L10.4023077,20.7841882 L10.4023077,12.4288 L10.4023077,12.4288 Z M10.4023077,11.6005647 L10.4023077,2.06456471 L18.4373077,15.2045176 L10.4023077,11.6005647 Z M9.63307692,11.5975529 L1.575,15.2346353 L9.63307692,2.06381176 L9.63307692,11.5975529 Z" id="Shape"></path>
                    <path d="M19.1915385,18.1364706 L9.98230769,23.4819765 L0.796153846,18.1594353 C0.639615385,18.0687059 0.440384615,18.0976941 0.317307692,18.2283294 C0.194230769,18.3589647 0.181153846,18.5558588 0.286153846,18.7011765 L9.66846154,31.6784941 C9.74076923,31.7782588 9.85769231,31.8373647 9.98230769,31.8373647 C10.1069231,31.8373647 10.2242308,31.7782588 10.2961538,31.6784941 L19.7015385,18.6782118 C19.8061538,18.5328941 19.7930769,18.336 19.6703846,18.2053647 C19.5469231,18.0739765 19.3469231,18.0464941 19.1915385,18.1364706 Z M9.59769231,24.1340235 L9.59769231,30.2768941 L1.95538462,19.7059765 L9.59769231,24.1340235 Z M10.3669231,30.2776471 L10.3669231,24.1340235 L18.0296154,19.6864 L10.3669231,30.2776471 Z" id="Shape"></path>
                </g>
            </g>
        </g>
    </g>
</svg>