<?xml version="1.0" encoding="UTF-8"?>
<svg width="86px" height="88px" viewBox="0 0 86 88" version="1.1" xmlns="http://www.w3.org/2000/svg" xmlns:xlink="http://www.w3.org/1999/xlink">
    <!-- Generator: Sketch 43.1 (39012) - http://www.bohemiancoding.com/sketch -->
    <title>noun_1247947_cc</title>
    <desc>Created with Sketch.</desc>
    <defs></defs>
    <g id="Page-1" stroke="none" stroke-width="1" fill="none" fill-rule="evenodd">
        <g id="noun_1247947_cc" fill-rule="nonzero" fill="#000000">
            <polygon id="Shape" points="41.862 30.824 41.862 87.453 6.93 77.438 6.93 48.584 34.239 50.148"></polygon>
            <polygon id="Shape" points="77.396 29.531 44.618 27.53 52.742 48.333 85.521 46.332"></polygon>
            <polygon id="Shape" points="44.14 30.824 51.763 50.148 79.07 48.584 79.07 77.438 44.14 87.453"></polygon>
            <polygon id="Shape" points="8.604 29.531 0.481 46.332 33.261 48.333 41.383 27.53"></polygon>
            <path d="M71.234,25.756 C71.085,24.707 70.099,23.846 69.036,23.846 L63.555,23.846 C62.495,23.846 60.889,21.666 60.507,20.888 C60.124,20.109 60.425,18.861 61.177,18.109 L65.055,14.234 C65.806,13.482 65.863,12.205 65.183,11.387 L60.621,6.828 C59.805,6.149 58.525,6.206 57.773,6.956 L53.897,10.833 C53.147,11.581 50.496,11.188 49.669,10.904 C48.843,10.621 48.165,9.518 48.166,8.455 L48.166,2.975 C48.166,1.912 47.307,0.927 46.254,0.782 C46.254,0.782 44.779,0.577 43.022,0.579 C41.262,0.58 39.788,0.785 39.788,0.785 C38.736,0.928 37.877,1.915 37.877,2.977 L37.878,2.978 L37.877,8.462 C37.877,9.523 35.698,11.128 34.921,11.51 C34.143,11.891 32.895,11.586 32.146,10.838 L28.27,6.962 C27.517,6.21 26.235,6.154 25.419,6.833 L20.86,11.393 C20.182,12.208 20.238,13.488 20.988,14.24 L24.864,18.114 C25.619,18.864 25.222,21.517 24.939,22.342 C24.651,23.172 23.551,23.846 22.489,23.846 L17.006,23.846 C15.946,23.846 14.961,24.706 14.817,25.759 C14.817,25.759 14.755,26.22 14.701,26.913 L33.149,25.787 C34.501,21.616 38.401,18.594 43.019,18.594 C47.431,18.594 51.187,21.347 52.697,25.223 L71.301,26.359 C71.265,25.991 71.234,25.756 71.234,25.756 Z" id="Shape"></path>
        </g>
    </g>
</svg>