<?xml version="1.0" encoding="UTF-8"?>
<svg width="96px" height="84px" viewBox="0 0 96 84" version="1.1" xmlns="http://www.w3.org/2000/svg" xmlns:xlink="http://www.w3.org/1999/xlink">
    <!-- Generator: Sketch 43.1 (39012) - http://www.bohemiancoding.com/sketch -->
    <title>noun_1139039_cc</title>
    <desc>Created with Sketch.</desc>
    <defs></defs>
    <g id="Page-1" stroke="none" stroke-width="1" fill="none" fill-rule="evenodd">
        <g id="noun_1139039_cc" fill-rule="nonzero" fill="#000000">
            <g id="Group">
                <path d="M44.6352539,38.6351318 C43.9385986,38.7647094 43.4106445,39.3735962 43.4106445,40.1074218 C43.4106445,40.9355468 44.0820312,41.6074218 44.9106445,41.6074218 L46.5861206,41.6074218 C46.7265015,42.289978 47.3306885,42.8037109 48.0551758,42.8037109 C48.8085327,42.8037109 49.4260864,42.2464599 49.5330811,41.5231933 C51.3536988,41.1732787 52.7236329,39.7332153 52.7236329,38.0107421 C52.7236329,37.1400146 52.3598634,36.3513793 51.7788087,35.7284545 C52.1271974,35.2092895 52.3398439,34.6086425 52.3398439,33.9599608 C52.3398439,32.3847655 51.1503908,31.0668334 49.5395509,30.6532591 C49.4608155,29.8991087 48.8305665,29.3085936 48.0551759,29.3085936 C47.3303224,29.3085936 46.7258302,29.8227538 46.5857545,30.5058592 L44.9106446,30.5058592 C44.0820313,30.5058592 43.4106446,31.1777342 43.4106446,32.0058592 C43.4106446,32.7396849 43.9385987,33.3485106 44.635254,33.4780882 L44.635254,38.6351318 L44.6352539,38.6351318 Z M48.487793,33.5058594 C49.0161133,33.5058594 49.3398438,33.7998047 49.3398438,33.959961 C49.3398438,34.1201173 49.0161133,34.4140626 48.487793,34.4140626 L47.6352539,34.4140626 L47.6352539,33.5058595 L48.487793,33.5058595 L48.487793,33.5058594 Z M48.6791992,38.6074219 L47.6352539,38.6074219 L47.6352539,37.4140625 L48.487793,37.4140625 L48.6791992,37.4140625 C49.3071289,37.4140625 49.7236328,37.7734375 49.7236328,38.0107422 C49.7236328,38.2480469 49.3071289,38.6074219 48.6791992,38.6074219 Z" id="Shape"></path>
                <path d="M52.3398438,70.4726562 C52.3398438,68.8974609 51.1503907,67.5795288 49.5395508,67.1659545 C49.4608154,66.4118041 48.8305664,65.821289 48.0551758,65.821289 C47.3303223,65.821289 46.7258301,66.3354492 46.5857544,67.0185546 L44.9106445,67.0185546 C44.0820312,67.0185546 43.4106445,67.6904296 43.4106445,68.5185546 C43.4106445,69.2523803 43.9385986,69.861206 44.6352539,69.9907836 L44.6352539,75.1468505 C43.9385986,75.2764281 43.4106445,75.8853149 43.4106445,76.6191405 C43.4106445,77.4472655 44.0820312,78.1191405 44.9106445,78.1191405 L46.5858154,78.1191405 C46.72583,78.802307 47.3303222,79.3164061 48.0551758,79.3164061 C48.8088989,79.3164061 49.4265747,78.7587279 49.5331421,78.034912 C51.3537598,77.6849364 52.7236328,76.244995 52.7236328,74.5234374 C52.7236328,73.6527099 52.3598633,72.8640746 51.7788086,72.2411498 C52.1271973,71.7219849 52.3398438,71.1213379 52.3398438,70.4726562 Z M47.6352539,70.0185547 L48.487793,70.0185547 C49.0161133,70.0185547 49.3398438,70.3125 49.3398438,70.4726563 C49.3398438,70.6328126 49.0161133,70.9267579 48.487793,70.9267579 L47.6352539,70.9267579 L47.6352539,70.0185547 Z M48.6791992,75.1191406 L47.6352539,75.1191406 L47.6352539,73.9267578 L48.487793,73.9267578 L48.6791992,73.9267578 C49.3071289,73.9267578 49.7236328,74.2861328 49.7236328,74.5234375 C49.7236328,74.7607422 49.3071289,75.1191406 48.6791992,75.1191406 Z" id="Shape"></path>
                <path d="M83.027832,70.4726562 C83.027832,68.8975219 81.8385009,67.5797119 80.227539,67.1660766 C80.1488036,66.4119262 79.5185546,65.821289 78.743164,65.821289 C78.0183105,65.821289 77.4138183,66.3354492 77.2737426,67.0185546 L75.5986327,67.0185546 C74.7700194,67.0185546 74.0986327,67.6904296 74.0986327,68.5185546 C74.0986327,69.2523803 74.6265868,69.861206 75.3232421,69.9907836 L75.3232421,75.1468505 C74.6265868,75.2764281 74.0986327,75.8853149 74.0986327,76.6191405 C74.0986327,77.4472655 74.7700194,78.1191405 75.5986327,78.1191405 L77.2738036,78.1191405 C77.4138182,78.802307 78.0183104,79.3164061 78.743164,79.3164061 C79.4968871,79.3164061 80.1145629,78.7587279 80.2211303,78.034912 C82.0416869,77.6849364 83.4111327,76.244995 83.4111327,74.5234374 C83.4111327,73.6527709 83.0475463,72.8641356 82.4666747,72.2412719 C82.8151245,71.7221069 83.027832,71.1213989 83.027832,70.4726562 Z M78.3232422,70.0185547 L79.175293,70.0185547 C79.7041016,70.0185547 80.0278321,70.3125 80.0278321,70.4726563 C80.0278321,70.6328126 79.7041016,70.9267579 79.175293,70.9267579 L78.3232422,70.9267579 L78.3232422,70.0185547 Z M79.3671875,75.1191406 L78.3232422,75.1191406 L78.3232422,73.9267578 L79.175293,73.9267578 L79.3671875,73.9267578 C79.9946289,73.9267578 80.4111328,74.2861328 80.4111328,74.5234375 C80.4111328,74.7607422 79.9946289,75.1191406 79.3671875,75.1191406 Z" id="Shape"></path>
                <path d="M21.6518555,70.4726562 C21.6518555,68.8974609 20.4624024,67.5795288 18.8515625,67.1659545 C18.7728271,66.4118041 18.1425781,65.821289 17.3671875,65.821289 C16.642334,65.821289 16.0378418,66.3354492 15.8977661,67.0185546 L14.2226562,67.0185546 C13.3940429,67.0185546 12.7226562,67.6904296 12.7226562,68.5185546 C12.7226562,69.2523803 13.2506103,69.861206 13.9472656,69.9907836 L13.9472656,75.1468505 C13.2506103,75.2764281 12.7226562,75.8853149 12.7226562,76.6191405 C12.7226562,77.4472655 13.3940429,78.1191405 14.2226562,78.1191405 L15.8978271,78.1191405 C16.0378417,78.802307 16.6423339,79.3164061 17.3671875,79.3164061 C18.1208496,79.3164061 18.7385254,78.7587889 18.8451538,78.035034 C20.6658325,77.6852415 22.0356445,76.245178 22.0356445,74.5234373 C22.0356445,73.6526487 21.671936,72.8639524 21.0909424,72.2410276 C21.43927,71.7218628 21.6518555,71.1212769 21.6518555,70.4726562 Z M16.9472656,70.0185547 L17.7998047,70.0185547 C18.328125,70.0185547 18.6518555,70.3125 18.6518555,70.4726563 C18.6518555,70.6328126 18.328125,70.9267579 17.7998047,70.9267579 L16.9472656,70.9267579 L16.9472656,70.0185547 Z M17.9916992,75.1191406 L16.9472656,75.1191406 L16.9472656,73.9267578 L17.7998047,73.9267578 L17.9916992,73.9267578 C18.6191406,73.9267578 19.0356445,74.2861328 19.0356445,74.5234375 C19.0356445,74.7607422 18.6191406,75.1191406 17.9916992,75.1191406 Z" id="Shape"></path>
                <path d="M28.8896484,56.9066162 C28.1929931,57.0361938 27.665039,57.6450806 27.665039,58.3789062 C27.665039,59.2070312 28.3364257,59.8789062 29.165039,59.8789062 L30.84021,59.8789062 C30.9802246,60.5620727 31.5847168,61.0761718 32.3095704,61.0761718 C33.0632325,61.0761718 33.6809083,60.5185546 33.7875367,59.7947997 C35.6082154,59.4449462 36.9780274,58.0048217 36.9780274,56.2822265 C36.9780274,55.4119262 36.6143189,54.623413 36.0333863,54.0006713 C36.3816529,53.4815673 36.5942384,52.8809814 36.5942384,52.2324218 C36.5942384,50.6572265 35.4047853,49.3392944 33.7939454,48.9257201 C33.71521,48.1715697 33.084961,47.5810546 32.3095704,47.5810546 C31.5847169,47.5810546 30.9802247,48.0952148 30.840149,48.7783202 L29.1650391,48.7783202 C28.3364258,48.7783202 27.6650391,49.4501952 27.6650391,50.2783202 C27.6650391,51.0121459 28.1929932,51.6209716 28.8896485,51.7505492 L28.8896485,56.9066162 L28.8896484,56.9066162 Z M32.7421875,51.7783203 C33.2705078,51.7783203 33.5942383,52.0722656 33.5942383,52.2324219 C33.5942383,52.3925782 33.2705078,52.6865235 32.7421875,52.6865235 L31.8896484,52.6865235 L31.8896484,51.7783204 L32.7421875,51.7783204 L32.7421875,51.7783203 Z M32.934082,56.8789062 L31.8896484,56.8789062 L31.8896484,55.6865234 L32.7421875,55.6865234 L32.934082,55.6865234 C33.5615234,55.6865234 33.9780273,56.0449218 33.9780273,56.2822265 C33.9780273,56.5195312 33.5615234,56.8789062 32.934082,56.8789062 Z" id="Shape"></path>
                <path d="M59.878418,56.9066162 C59.1817627,57.0361938 58.6538086,57.6450806 58.6538086,58.3789062 C58.6538086,59.2070312 59.3251953,59.8789062 60.1538086,59.8789062 L61.8289795,59.8789062 C61.9689941,60.5620727 62.5734863,61.0761718 63.2983399,61.0761718 C64.052002,61.0761718 64.6696778,60.5185546 64.7763062,59.7947997 C66.5969849,59.4449462 67.9667969,58.0048217 67.9667969,56.2822265 C67.9667969,55.4119262 67.6030884,54.623413 67.0221558,54.0006713 C67.3704224,53.4815673 67.5830079,52.8809814 67.5830079,52.2324218 C67.5830079,50.6572265 66.3935548,49.3392944 64.7827149,48.9257201 C64.7039795,48.1715697 64.0737305,47.5810546 63.2983399,47.5810546 C62.5734864,47.5810546 61.9689942,48.0952148 61.8289185,48.7783202 L60.1538086,48.7783202 C59.3251953,48.7783202 58.6538086,49.4501952 58.6538086,50.2783202 C58.6538086,51.0121459 59.1817627,51.6209716 59.878418,51.7505492 L59.878418,56.9066162 L59.878418,56.9066162 Z M63.730957,51.7783203 C64.2592773,51.7783203 64.5830078,52.0722656 64.5830078,52.2324219 C64.5830078,52.3925782 64.2592773,52.6865235 63.730957,52.6865235 L62.878418,52.6865235 L62.878418,51.7783204 L63.730957,51.7783204 L63.730957,51.7783203 Z M63.9228516,56.8789062 L62.878418,56.8789062 L62.878418,55.6865234 L63.7309571,55.6865234 L63.9228516,55.6865234 C64.550293,55.6865234 64.9667969,56.0449218 64.9667969,56.2822265 C64.9667969,56.5195312 64.550293,56.8789062 63.9228516,56.8789062 Z" id="Shape"></path>
                <path d="M95.3334961,78.8369141 L91.9941406,64.6386719 C91.6220703,63.0546875 90.2578125,61.9482422 88.6777344,61.9482422 L80.0653687,61.9482422 C80.1293946,61.5048218 80.130066,61.0494385 80.0234375,60.5966797 L76.6835937,46.3984375 C76.3115234,44.8144531 74.9472656,43.7080078 73.3671875,43.7080078 L64.743042,43.7080078 C64.8278809,43.2296753 64.8286743,42.7336426 64.7128906,42.2421875 L61.3730468,28.0429687 C61.0004882,26.4599609 59.6367187,25.3535156 58.0571288,25.3535156 L37.9428711,25.3535156 C36.3632813,25.3535156 34.9995117,26.4599609 34.6269531,28.0429687 L31.2871093,42.2421875 C31.1713256,42.7336426 31.1721191,43.2296753 31.2569579,43.7080078 L22.6328124,43.7080078 C21.0527343,43.7080078 19.6884765,44.8144531 19.3164062,46.3984375 L15.9765624,60.5966797 C15.869934,61.0494385 15.8706054,61.5048218 15.9346312,61.9482422 L7.3222656,61.9482422 C5.7421875,61.9482422 4.3779297,63.0546875 4.0058594,64.6386719 L0.6665039,78.8369141 C0.4116211,79.9199219 0.6577148,81.0351563 1.3408203,81.897461 C1.9912109,82.7187501 2.9541015,83.1894532 3.9824219,83.1894532 L30.7758789,83.1894532 C31.4724731,83.1894532 32.1300659,82.9584351 32.6896973,82.564148 C33.2493286,82.9584351 33.9069214,83.1894532 34.6035157,83.1894532 L61.3964845,83.1894532 C62.0930787,83.1894532 62.7506715,82.9584351 63.3103029,82.564148 C63.8699342,82.9584351 64.527527,83.1894532 65.2241213,83.1894532 L92.0175783,83.1894532 C93.0458986,83.1894532 94.0087892,82.7187501 94.6591799,81.897461 C95.3422852,81.0351562 95.5883789,79.9199219 95.3334961,78.8369141 Z M73.7636719,47.0859375 L77.1035157,61.2841797 C77.1650391,61.5458985 77.050293,61.7275391 76.9980469,61.7929688 C76.9418946,61.8642579 76.8461914,61.9482422 76.7070313,61.9482422 L68.5639649,61.9482422 L58.0571289,61.9482422 L49.9135742,61.9482422 C49.774414,61.9482422 49.6787109,61.8642578 49.6230469,61.7939453 C49.5708008,61.7275391 49.4560547,61.5458984 49.5175781,61.2841797 L52.8569336,47.0859375 C52.9091797,46.8632813 53.0722656,46.7080078 53.253418,46.7080078 L73.3671875,46.7080078 C73.5483398,46.7080078 73.7114258,46.8632812 73.7636719,47.0859375 Z M63.3103027,72.8742676 L61.4458618,64.9482422 L65.1747436,64.9482422 L63.3103027,72.8742676 Z M48,54.6342163 L46.1089478,46.59375 L49.8910523,46.59375 L48,54.6342163 Z M34.2070312,42.9296875 L37.546875,28.7304687 C37.5986328,28.5117187 37.7646484,28.3535156 37.9428711,28.3535156 L58.0571289,28.3535156 C58.2353516,28.3535156 58.4013672,28.5117187 58.453125,28.7304687 L61.7929688,42.9296875 C61.8544922,43.1914063 61.7397461,43.3730469 61.6875,43.4394531 C61.6313477,43.5097656 61.5356445,43.59375 61.3964844,43.59375 L34.6035156,43.59375 C34.4643554,43.59375 34.3686523,43.5097656 34.3125,43.4394531 C34.2602539,43.3730469 34.1455078,43.1914062 34.2070312,42.9296875 Z M19.0019531,61.7929688 C18.949707,61.7275391 18.8349609,61.5458985 18.8964843,61.2841797 L22.2363281,47.0859375 C22.2885742,46.8632813 22.4516601,46.7080078 22.6328125,46.7080078 L42.746582,46.7080078 C42.9277343,46.7080078 43.0908203,46.8632812 43.1430664,47.0859375 L46.4824219,61.2841797 C46.5439453,61.5458985 46.4291992,61.7275391 46.3769531,61.7939453 C46.321289,61.8642578 46.2255859,61.9482422 46.0864258,61.9482422 L37.9428711,61.9482422 L27.4360352,61.9482422 L19.2929688,61.9482422 C19.1538086,61.9482422 19.0581055,61.8642578 19.0019531,61.7929688 Z M32.6896973,72.8742676 L30.8252564,64.9482422 L34.5541382,64.9482422 L32.6896973,72.8742676 Z M31.0664062,80.0341797 C31.0102539,80.1054688 30.9145507,80.1894531 30.7758789,80.1894531 L3.9824219,80.1894531 C3.84375,80.1894531 3.7480469,80.1054687 3.6923828,80.0351562 C3.6401367,79.96875 3.5249023,79.7861328 3.5864258,79.524414 L6.9257813,65.3261718 C6.9780274,65.1035156 7.1411133,64.9482421 7.3222657,64.9482421 L19.2929688,64.9482421 L27.4360352,64.9482421 C27.6171875,64.9482421 27.7802735,65.1035155 27.8325196,65.3261718 L31.1723634,79.524414 C31.2338867,79.7861328 31.1186523,79.96875 31.0664062,80.0341797 Z M61.6870117,80.0351562 C61.6313476,80.1054687 61.5351562,80.1894531 61.3964844,80.1894531 L34.6035156,80.1894531 C34.4648437,80.1894531 34.3686523,80.1054687 34.3129883,80.0351562 C34.2607422,79.96875 34.1455078,79.7861328 34.2070313,79.524414 L37.5468751,65.3261718 C37.5991212,65.1035156 37.7622071,64.9482421 37.9428712,64.9482421 L46.0864259,64.9482421 L49.9135743,64.9482421 L58.057129,64.9482421 C58.2377931,64.9482421 58.400879,65.1035155 58.4531251,65.3261718 L61.7929689,79.524414 C61.8544922,79.7861328 61.7392578,79.96875 61.6870117,80.0351562 Z M92.3076172,80.0351562 C92.2519531,80.1054687 92.15625,80.1894531 92.0175781,80.1894531 L65.2241211,80.1894531 C65.0854492,80.1894531 64.9897461,80.1054687 64.9335938,80.0341797 C64.8813477,79.96875 64.7661133,79.7861328 64.8276368,79.5244141 L68.1674806,65.3261719 C68.2197267,65.1035157 68.3828126,64.9482422 68.563965,64.9482422 L76.7070314,64.9482422 L88.6777345,64.9482422 C88.8588868,64.9482422 89.0219728,65.1035156 89.0742189,65.3261719 L92.4135744,79.5244141 C92.4750977,79.7861328 92.3598633,79.96875 92.3076172,80.0351562 Z" id="Shape"></path>
                <path d="M48,14.0820312 C48.8286133,14.0820312 49.5,13.4101562 49.5,12.5820312 L49.5,2.3105469 C49.5,1.4824219 48.8286133,0.8105469 48,0.8105469 C47.1713867,0.8105469 46.5,1.4824219 46.5,2.3105469 L46.5,12.5820313 C46.5,13.4101562 47.1713867,14.0820312 48,14.0820312 Z" id="Shape"></path>
                <path d="M65.2260742,18.1083984 C65.4628906,18.2460937 65.7216797,18.3115234 65.977539,18.3115234 C66.4946288,18.3115234 66.9980468,18.0439453 67.2763671,17.5644531 L72.7138671,8.1992187 C73.1298827,7.4833984 72.8862304,6.5654296 72.1694335,6.149414 C71.4541015,5.7324218 70.5351562,5.9765624 70.1191405,6.6933593 L64.6816405,16.0585937 C64.265625,16.7744141 64.5092773,17.6923828 65.2260742,18.1083984 Z" id="Shape"></path>
                <path d="M79.6064453,28.5830078 C79.8706055,28.5830078 80.1386719,28.5136719 80.3813476,28.3662109 L89.7099609,22.7255859 C90.418457,22.296875 90.6459961,21.375 90.2172851,20.6660156 C89.7880859,19.9580078 88.8676757,19.727539 88.1572265,20.1591797 L78.8286132,25.7998047 C78.1201171,26.2285156 77.892578,27.1503906 78.321289,27.859375 C78.6035156,28.3251953 79.0986328,28.5830078 79.6064453,28.5830078 Z" id="Shape"></path>
                <path d="M27.2177734,17.5644531 C27.4960937,18.0439453 27.9995117,18.3115234 28.5166015,18.3115234 C28.7719726,18.3115234 29.0312499,18.2460937 29.2685546,18.1083984 C29.9848632,17.6923828 30.2285155,16.774414 29.8124999,16.0585937 L24.3745116,6.6933593 C23.958496,5.977539 23.0415038,5.7324218 22.3237304,6.149414 C21.6074218,6.5654296 21.3637695,7.4833984 21.7797851,8.1992187 L27.2177734,17.5644531 Z" id="Shape"></path>
                <path d="M4.7836914,22.7255859 L14.1123047,28.3662109 C14.3554688,28.5136718 14.6230469,28.5830078 14.887207,28.5830078 C15.3950195,28.5830078 15.890625,28.3251953 16.1723632,27.859375 C16.6010741,27.1503906 16.3735351,26.2285156 15.665039,25.7998047 L6.3364257,20.1591797 C5.6259765,19.7275391 4.7045898,19.9580078 4.2763671,20.6660156 C3.8476562,21.375 4.0751953,22.296875 4.7836914,22.7255859 Z" id="Shape"></path>
            </g>
        </g>
    </g>
</svg>